<svg id="visual" viewBox="0 0 900 600" width="900" height="600" xmlns="http://www.w3.org/2000/svg" xmlns:xlink="http://www.w3.org/1999/xlink" version="1.1"><rect x="0" y="0" width="900" height="600" fill="#111827"></rect><defs><linearGradient id="grad1_0" x1="33.3%" y1="0%" x2="100%" y2="100%"><stop offset="20%" stop-color="#111827" stop-opacity="1"></stop><stop offset="80%" stop-color="#111827" stop-opacity="1"></stop></linearGradient></defs><defs><linearGradient id="grad2_0" x1="0%" y1="0%" x2="66.7%" y2="100%"><stop offset="20%" stop-color="#111827" stop-opacity="1"></stop><stop offset="80%" stop-color="#111827" stop-opacity="1"></stop></linearGradient></defs><g transform="translate(900, 0)"><path d="M0 243.4C-23.6 221.4 -47.3 199.4 -79.2 191.2C-111.2 183.1 -151.5 188.8 -172.1 172.1C-192.7 155.4 -193.7 116.2 -202.3 83.8C-210.9 51.4 -227.2 25.7 -243.4 0L0 0Z" fill="#0369a1"></path></g><g transform="translate(0, 600)"><path d="M0 -243.4C27.8 -231.7 55.6 -220.1 87.3 -210.6C118.9 -201.2 154.4 -194 172.1 -172.1C189.8 -150.1 189.7 -113.4 198.6 -82.3C207.6 -51.1 225.5 -25.6 243.4 0L0 0Z" fill="#0369a1"></path></g></svg>